<svg width="2539" height="480" viewBox="0 0 2539 480" fill="none" xmlns="http://www.w3.org/2000/svg">
<path fill-rule="evenodd" clip-rule="evenodd" d="M435.411 27.2334L809.786 235.98L435.413 448.819L0 235.979L435.411 27.2334ZM18.3595 236.049L435.132 439.777L793.48 236.048L435.134 36.2383L18.3595 236.049ZM407.347 163.219L514.399 227.826L411.668 296.713L291.771 236.414L407.347 163.219ZM407.448 172.624L307.986 235.614L411.091 287.468L499.505 228.181L407.448 172.624Z" fill="#1F2830"/>
<path d="M849.179 -4.76837e-07H746.16L797.669 51.5702L849.179 -4.76837e-07Z" fill="#1F2830"/>
<path d="M754.16 480H857.179L805.669 428.43L754.16 480Z" fill="#1F2830"/>
<path fill-rule="evenodd" clip-rule="evenodd" d="M1275.41 27.2334L1649.79 235.98L1275.41 448.819L840 235.979L1275.41 27.2334ZM858.359 236.049L1275.13 439.777L1633.48 236.048L1275.13 36.2383L858.359 236.049ZM1247.35 163.219L1354.4 227.826L1251.67 296.713L1131.77 236.414L1247.35 163.219ZM1247.45 172.624L1147.99 235.614L1251.09 287.468L1339.5 228.181L1247.45 172.624Z" fill="#1F2830"/>
<path d="M1689.18 -4.76837e-07H1586.16L1637.67 51.5702L1689.18 -4.76837e-07Z" fill="#1F2830"/>
<path d="M1586.16 480H1689.18L1637.67 428.43L1586.16 480Z" fill="#1F2830"/>
<path fill-rule="evenodd" clip-rule="evenodd" d="M2115.41 27.2334L2489.79 235.98L2115.41 448.819L1680 235.979L2115.41 27.2334ZM1698.36 236.049L2115.13 439.777L2473.48 236.048L2115.13 36.2383L1698.36 236.049ZM2087.35 163.219L2194.4 227.826L2091.67 296.713L1971.77 236.414L2087.35 163.219ZM2087.45 172.624L1987.99 235.614L2091.09 287.468L2179.5 228.181L2087.45 172.624Z" fill="#1F2830"/>
<path fill-rule="evenodd" clip-rule="evenodd" d="M2416.51 0H2538.83L2477.67 61.2304L2416.51 0Z" fill="#1F2830"/>
<path fill-rule="evenodd" clip-rule="evenodd" d="M2477.67 418.77L2538.83 480H2416.51L2477.67 418.77Z" fill="#1F2830"/>
</svg>
