<svg width="1798" height="480" viewBox="0 0 1798 480" fill="none" xmlns="http://www.w3.org/2000/svg">
<path fill-rule="evenodd" clip-rule="evenodd" d="M240 0L245.591 5.59096L11.1819 240L245.591 474.409L240 480L0 240L240 0ZM893.005 240L658.596 5.59096L664.187 0L904.187 240L664.187 480L658.596 474.409L893.005 240Z" fill="#1F2830"/>
<path d="M200.936 240L438.14 2.79548L675.345 240L438.14 477.204L200.936 240Z" fill="#1F2830"/>
<path fill-rule="evenodd" clip-rule="evenodd" d="M1133.01 0L1138.6 5.59096L904.187 240L1138.6 474.409L1133.01 480L893.005 240L1133.01 0ZM1786.01 240L1551.6 5.59096L1557.19 0L1797.19 240L1557.19 480L1551.6 474.409L1786.01 240Z" fill="#1F2830"/>
<path d="M1093.94 240L1331.15 2.79548L1568.35 240L1331.15 477.204L1093.94 240Z" fill="#1F2830"/>
</svg>
