<svg width="3249" height="480" viewBox="0 0 3249 480" fill="none" xmlns="http://www.w3.org/2000/svg">
<path fill-rule="evenodd" clip-rule="evenodd" d="M2722.63 2.38429L3248.49 464.288L3238.42 475.748L2722.3 22.4038L2166.15 480L1638.12 22.3761L1081.93 480L553.935 22.403L9.76546 475.877L0 464.159L554.128 2.38512L1082.19 460.036L1638.38 2.41196L2166.4 460.036L2722.63 2.38429ZM552.937 425.976L617.34 479.645H510.001L552.937 425.976ZM2728.41 425.976L2792.81 479.645H2685.47L2728.41 425.976Z" fill="#1F2830"/>
<path fill-rule="evenodd" clip-rule="evenodd" d="M1018.07 6.10352e-05H1131.96L1075.02 45.556L1018.07 6.10352e-05Z" fill="#1F2830"/>
<path fill-rule="evenodd" clip-rule="evenodd" d="M2098.7 6.10352e-05H2212.59L2155.64 45.556L2098.7 6.10352e-05Z" fill="#1F2830"/>
<path fill-rule="evenodd" clip-rule="evenodd" d="M1638.98 368.099L1779.13 479.645L1498.83 479.645L1638.98 368.099Z" fill="#1F2830"/>
</svg>
