<svg width="1396" height="480" viewBox="0 0 1396 480" fill="none" xmlns="http://www.w3.org/2000/svg">
<path fill-rule="evenodd" clip-rule="evenodd" d="M698.932 0L875.403 247.059L698.932 480L522.461 247.059L698.932 0ZM532.12 246.923L698.932 467.114L865.743 246.923L698.932 13.3871L532.12 246.923ZM142.815 104.176L211.471 172.833L280.128 104.176L422.943 246.991L280.128 389.806L211.471 321.149L142.815 389.806L0 246.991L142.815 104.176ZM205.969 315.647L137.313 246.991L205.969 178.335L142.815 115.18L11.0041 246.991L142.815 378.802L205.969 315.647ZM211.471 310.145L148.317 246.991L211.471 183.837L274.626 246.991L211.471 310.145ZM216.973 315.647L285.63 246.991L216.973 178.335L280.128 115.18L411.939 246.991L280.128 378.802L216.973 315.647Z" fill="#1F2830"/>
<path fill-rule="evenodd" clip-rule="evenodd" d="M1115.48 97.1851L1184.14 165.842L1252.79 97.1851L1395.61 240L1252.79 382.815L1184.14 314.158L1115.48 382.815L972.666 240L1115.48 97.1851ZM1189.64 308.656L1252.79 371.811L1384.6 240L1252.79 108.189L1189.64 171.344L1258.3 240L1189.64 308.656ZM1178.64 171.344L1109.98 240L1178.64 308.656L1115.48 371.811L983.67 240L1115.48 108.189L1178.64 171.344ZM1184.14 176.846L1247.29 240L1184.14 303.154L1120.98 240L1184.14 176.846Z" fill="#1F2830"/>
</svg>
