<svg width="18" height="16" viewBox="0 0 18 16" fill="none" xmlns="http://www.w3.org/2000/svg">
<g id="vector">
<path id="Vector" d="M17 16V6.87648C16.9997 6.59014 16.9174 6.30892 16.7614 6.06102C16.6054 5.81312 16.3811 5.60726 16.1111 5.46409L9.88889 1.21876C9.61863 1.07545 9.31207 1 9 1C8.68793 1 8.38137 1.07545 8.11111 1.21876L1.88889 5.46409C1.6189 5.60726 1.39465 5.81312 1.23863 6.06102C1.08262 6.30892 1.00032 6.59014 1 6.87648V16" stroke="#505559" stroke-width="1.75" stroke-linejoin="round"/>
<g id="Vector_2">
<path d="M4 8.5H14V10H4V8.5Z" fill="#505559"/>
<path d="M4 14.5H14V16H4V14.5Z" fill="#505559"/>
<path d="M4 11.5H14V13H4V11.5Z" fill="#505559"/>
</g>
</g>
</svg>
