<svg width="24" height="22" viewBox="0 0 24 22" fill="none" xmlns="http://www.w3.org/2000/svg">
<g id="vector">
<path id="Vector" d="M19.7797 12.3359L20.8397 11.2759C21.3507 10.7651 21.7561 10.1587 22.0326 9.49126C22.3092 8.8238 22.4515 8.10839 22.4515 7.3859C22.4515 6.66342 22.3092 5.94801 22.0326 5.28055C21.7561 4.61309 21.3507 4.00666 20.8397 3.4959C20.329 2.98491 19.7225 2.57955 19.0551 2.30299C18.3876 2.02643 17.6722 1.88408 16.9497 1.88408C16.2272 1.88408 15.5118 2.02643 14.8444 2.30299C14.1769 2.57955 13.5705 2.98491 13.0597 3.4959L11.9997 4.5559L10.9397 3.4959C9.90803 2.46421 8.50876 1.88461 7.04972 1.88461C5.59069 1.88461 4.19141 2.46421 3.15972 3.4959C2.12803 4.5276 1.54843 5.92687 1.54843 7.3859C1.54843 8.84494 2.12803 10.2442 3.15972 11.2759L4.21972 12.3359L11.9997 20.1159L15.6317 16.4839" stroke="#1F2830" stroke-width="2" stroke-linecap="square" stroke-linejoin="round"/>
<path id="Ellipse 1" d="M7.86851 5.17806C6.51614 4.89974 5.19421 5.77043 4.91588 7.1228C4.81014 7.63659 4.87025 8.14598 5.05961 8.59543" stroke="#A62033" stroke-width="2"/>
</g>
</svg>
